<?xml version="1.0" encoding="UTF-8" standalone="no"?>
<!DOCTYPE svg PUBLIC "-//W3C//DTD SVG 1.1//EN"
 "http://www.w3.org/Graphics/SVG/1.1/DTD/svg11.dtd">
<!-- Generated by graphviz version 2.40.1 (20161225.0304)
 -->
<!-- Title: %3 Pages: 1 -->
<svg width="1127pt" height="548pt"
 viewBox="0.00 0.00 1126.67 548.00" xmlns="http://www.w3.org/2000/svg" xmlns:xlink="http://www.w3.org/1999/xlink">
<g id="graph0" class="graph" transform="scale(1 1) rotate(0) translate(4 544)">
<title>%3</title>
<polygon fill="#ffffff" stroke="transparent" points="-4,4 -4,-544 1122.6741,-544 1122.6741,4 -4,4"/>
<!-- [root] aws_cloudwatch_log_group.my&#45;logs (expand) -->
<g id="node1" class="node">
<title>[root] aws_cloudwatch_log_group.my&#45;logs (expand)</title>
<polygon fill="none" stroke="#000000" points="459.7682,-396 241.7682,-396 241.7682,-360 459.7682,-360 459.7682,-396"/>
<text text-anchor="middle" x="350.7682" y="-374.3" font-family="Times,serif" font-size="14.00" fill="#000000">aws_cloudwatch_log_group.my&#45;logs</text>
</g>
<!-- [root] provider[&quot;registry.terraform.io/hashicorp/aws&quot;] -->
<g id="node10" class="node">
<title>[root] provider[&quot;registry.terraform.io/hashicorp/aws&quot;]</title>
<polygon fill="none" stroke="#000000" points="252.7682,-108 .2315,-90 252.7682,-72 505.305,-90 252.7682,-108"/>
<text text-anchor="middle" x="252.7682" y="-86.3" font-family="Times,serif" font-size="14.00" fill="#000000">provider[&quot;registry.terraform.io/hashicorp/aws&quot;]</text>
</g>
<!-- [root] aws_cloudwatch_log_group.my&#45;logs (expand)&#45;&gt;[root] provider[&quot;registry.terraform.io/hashicorp/aws&quot;] -->
<g id="edge1" class="edge">
<title>[root] aws_cloudwatch_log_group.my&#45;logs (expand)&#45;&gt;[root] provider[&quot;registry.terraform.io/hashicorp/aws&quot;]</title>
<path fill="none" stroke="#000000" d="M344.6379,-359.9843C327.9958,-311.0768 281.8942,-175.5946 262.0496,-117.2758"/>
<polygon fill="#000000" stroke="#000000" points="265.306,-115.9806 258.7711,-107.6412 258.6792,-118.2356 265.306,-115.9806"/>
</g>
<!-- [root] aws_flow_log.Flow_log (expand) -->
<g id="node2" class="node">
<title>[root] aws_flow_log.Flow_log (expand)</title>
<polygon fill="none" stroke="#000000" points="627.2682,-396 478.2682,-396 478.2682,-360 627.2682,-360 627.2682,-396"/>
<text text-anchor="middle" x="552.7682" y="-374.3" font-family="Times,serif" font-size="14.00" fill="#000000">aws_flow_log.Flow_log</text>
</g>
<!-- [root] aws_vpc.main (expand) -->
<g id="node9" class="node">
<title>[root] aws_vpc.main (expand)</title>
<polygon fill="none" stroke="#000000" points="768.2682,-180 673.2682,-180 673.2682,-144 768.2682,-144 768.2682,-180"/>
<text text-anchor="middle" x="720.7682" y="-158.3" font-family="Times,serif" font-size="14.00" fill="#000000">aws_vpc.main</text>
</g>
<!-- [root] aws_flow_log.Flow_log (expand)&#45;&gt;[root] aws_vpc.main (expand) -->
<g id="edge2" class="edge">
<title>[root] aws_flow_log.Flow_log (expand)&#45;&gt;[root] aws_vpc.main (expand)</title>
<path fill="none" stroke="#000000" d="M566.8029,-359.9555C596.5116,-321.7585 665.8552,-232.6025 700.4247,-188.1559"/>
<polygon fill="#000000" stroke="#000000" points="703.2787,-190.1874 706.6554,-180.1451 697.7532,-185.8898 703.2787,-190.1874"/>
</g>
<!-- [root] aws_instance.web (expand) -->
<g id="node3" class="node">
<title>[root] aws_instance.web (expand)</title>
<polygon fill="none" stroke="#000000" points="223.2682,-396 108.2682,-396 108.2682,-360 223.2682,-360 223.2682,-396"/>
<text text-anchor="middle" x="165.7682" y="-374.3" font-family="Times,serif" font-size="14.00" fill="#000000">aws_instance.web</text>
</g>
<!-- [root] aws_instance.web (expand)&#45;&gt;[root] provider[&quot;registry.terraform.io/hashicorp/aws&quot;] -->
<g id="edge3" class="edge">
<title>[root] aws_instance.web (expand)&#45;&gt;[root] provider[&quot;registry.terraform.io/hashicorp/aws&quot;]</title>
<path fill="none" stroke="#000000" d="M171.2105,-359.9843C185.9846,-311.0768 226.9116,-175.5946 244.5287,-117.2758"/>
<polygon fill="#000000" stroke="#000000" points="247.8978,-118.2261 247.4391,-107.6412 241.1968,-116.2018 247.8978,-118.2261"/>
</g>
<!-- [root] aws_internet_gateway.main_VPC_GW (expand) -->
<g id="node4" class="node">
<title>[root] aws_internet_gateway.main_VPC_GW (expand)</title>
<polygon fill="none" stroke="#000000" points="948.7682,-252 716.7682,-252 716.7682,-216 948.7682,-216 948.7682,-252"/>
<text text-anchor="middle" x="832.7682" y="-230.3" font-family="Times,serif" font-size="14.00" fill="#000000">aws_internet_gateway.main_VPC_GW</text>
</g>
<!-- [root] aws_internet_gateway.main_VPC_GW (expand)&#45;&gt;[root] aws_vpc.main (expand) -->
<g id="edge4" class="edge">
<title>[root] aws_internet_gateway.main_VPC_GW (expand)&#45;&gt;[root] aws_vpc.main (expand)</title>
<path fill="none" stroke="#000000" d="M804.5059,-215.8314C790.3131,-206.7074 772.9401,-195.539 757.7047,-185.7449"/>
<polygon fill="#000000" stroke="#000000" points="759.326,-182.6263 749.0215,-180.1628 755.5407,-188.5146 759.326,-182.6263"/>
</g>
<!-- [root] aws_route_table.custom_route_table (expand) -->
<g id="node5" class="node">
<title>[root] aws_route_table.custom_route_table (expand)</title>
<polygon fill="none" stroke="#000000" points="950.7682,-324 734.7682,-324 734.7682,-288 950.7682,-288 950.7682,-324"/>
<text text-anchor="middle" x="842.7682" y="-302.3" font-family="Times,serif" font-size="14.00" fill="#000000">aws_route_table.custom_route_table</text>
</g>
<!-- [root] aws_route_table.custom_route_table (expand)&#45;&gt;[root] aws_internet_gateway.main_VPC_GW (expand) -->
<g id="edge5" class="edge">
<title>[root] aws_route_table.custom_route_table (expand)&#45;&gt;[root] aws_internet_gateway.main_VPC_GW (expand)</title>
<path fill="none" stroke="#000000" d="M840.2448,-287.8314C839.1753,-280.131 837.9036,-270.9743 836.715,-262.4166"/>
<polygon fill="#000000" stroke="#000000" points="840.1681,-261.8367 835.3256,-252.4133 833.2347,-262.7997 840.1681,-261.8367"/>
</g>
<!-- [root] aws_route_table_association.a (expand) -->
<g id="node6" class="node">
<title>[root] aws_route_table_association.a (expand)</title>
<polygon fill="none" stroke="#000000" points="1054.7682,-396 872.7682,-396 872.7682,-360 1054.7682,-360 1054.7682,-396"/>
<text text-anchor="middle" x="963.7682" y="-374.3" font-family="Times,serif" font-size="14.00" fill="#000000">aws_route_table_association.a</text>
</g>
<!-- [root] aws_route_table_association.a (expand)&#45;&gt;[root] aws_route_table.custom_route_table (expand) -->
<g id="edge6" class="edge">
<title>[root] aws_route_table_association.a (expand)&#45;&gt;[root] aws_route_table.custom_route_table (expand)</title>
<path fill="none" stroke="#000000" d="M933.2348,-359.8314C917.7582,-350.6221 898.7813,-339.3301 882.2119,-329.4706"/>
<polygon fill="#000000" stroke="#000000" points="883.6753,-326.2687 873.2919,-324.1628 880.0958,-332.2843 883.6753,-326.2687"/>
</g>
<!-- [root] aws_subnet.main (expand) -->
<g id="node8" class="node">
<title>[root] aws_subnet.main (expand)</title>
<polygon fill="none" stroke="#000000" points="1090.2682,-324 979.2682,-324 979.2682,-288 1090.2682,-288 1090.2682,-324"/>
<text text-anchor="middle" x="1034.7682" y="-302.3" font-family="Times,serif" font-size="14.00" fill="#000000">aws_subnet.main</text>
</g>
<!-- [root] aws_route_table_association.a (expand)&#45;&gt;[root] aws_subnet.main (expand) -->
<g id="edge7" class="edge">
<title>[root] aws_route_table_association.a (expand)&#45;&gt;[root] aws_subnet.main (expand)</title>
<path fill="none" stroke="#000000" d="M981.6845,-359.8314C990.1124,-351.2848 1000.3093,-340.9443 1009.5042,-331.6198"/>
<polygon fill="#000000" stroke="#000000" points="1012.0814,-333.9912 1016.6107,-324.4133 1007.0971,-329.0761 1012.0814,-333.9912"/>
</g>
<!-- [root] aws_security_group.ingress&#45;all&#45;test (expand) -->
<g id="node7" class="node">
<title>[root] aws_security_group.ingress&#45;all&#45;test (expand)</title>
<polygon fill="none" stroke="#000000" points="854.2682,-396 645.2682,-396 645.2682,-360 854.2682,-360 854.2682,-396"/>
<text text-anchor="middle" x="749.7682" y="-374.3" font-family="Times,serif" font-size="14.00" fill="#000000">aws_security_group.ingress&#45;all&#45;test</text>
</g>
<!-- [root] aws_security_group.ingress&#45;all&#45;test (expand)&#45;&gt;[root] aws_vpc.main (expand) -->
<g id="edge8" class="edge">
<title>[root] aws_security_group.ingress&#45;all&#45;test (expand)&#45;&gt;[root] aws_vpc.main (expand)</title>
<path fill="none" stroke="#000000" d="M740.4066,-359.8462C726.1883,-330.2091 701.4337,-269.3769 707.7682,-216 708.775,-207.5166 710.6419,-198.4376 712.653,-190.1913"/>
<polygon fill="#000000" stroke="#000000" points="716.096,-190.8576 715.2236,-180.2988 709.321,-189.0971 716.096,-190.8576"/>
</g>
<!-- [root] aws_subnet.main (expand)&#45;&gt;[root] aws_vpc.main (expand) -->
<g id="edge9" class="edge">
<title>[root] aws_subnet.main (expand)&#45;&gt;[root] aws_vpc.main (expand)</title>
<path fill="none" stroke="#000000" d="M1074.8709,-287.9226C1089.2081,-279.2521 1103.7822,-267.3548 1111.7682,-252 1119.151,-237.8051 1122.2796,-228.0628 1111.7682,-216 1090.2238,-191.2756 882.2754,-173.3333 778.7392,-165.8548"/>
<polygon fill="#000000" stroke="#000000" points="778.6767,-162.3415 768.4531,-165.1214 778.1788,-169.3238 778.6767,-162.3415"/>
</g>
<!-- [root] var.subnetCIDRblock -->
<g id="node15" class="node">
<title>[root] var.subnetCIDRblock</title>
<polygon fill="none" stroke="#000000" points="1096.2682,-252 967.2682,-252 967.2682,-216 1102.2682,-216 1102.2682,-246 1096.2682,-252"/>
<polyline fill="none" stroke="#000000" points="1096.2682,-252 1096.2682,-246 "/>
<polyline fill="none" stroke="#000000" points="1102.2682,-246 1096.2682,-246 "/>
<text text-anchor="middle" x="1034.7682" y="-230.3" font-family="Times,serif" font-size="14.00" fill="#000000">var.subnetCIDRblock</text>
</g>
<!-- [root] aws_subnet.main (expand)&#45;&gt;[root] var.subnetCIDRblock -->
<g id="edge10" class="edge">
<title>[root] aws_subnet.main (expand)&#45;&gt;[root] var.subnetCIDRblock</title>
<path fill="none" stroke="#000000" d="M1034.7682,-287.8314C1034.7682,-280.131 1034.7682,-270.9743 1034.7682,-262.4166"/>
<polygon fill="#000000" stroke="#000000" points="1038.2683,-262.4132 1034.7682,-252.4133 1031.2683,-262.4133 1038.2683,-262.4132"/>
</g>
<!-- [root] aws_vpc.main (expand)&#45;&gt;[root] provider[&quot;registry.terraform.io/hashicorp/aws&quot;] -->
<g id="edge11" class="edge">
<title>[root] aws_vpc.main (expand)&#45;&gt;[root] provider[&quot;registry.terraform.io/hashicorp/aws&quot;]</title>
<path fill="none" stroke="#000000" d="M672.8834,-154.6331C595.4047,-142.7133 441.3191,-119.0078 342.8403,-103.8572"/>
<polygon fill="#000000" stroke="#000000" points="343.3121,-100.3887 332.8961,-102.3274 342.2476,-107.3073 343.3121,-100.3887"/>
</g>
<!-- [root] var.dnsHostNames -->
<g id="node11" class="node">
<title>[root] var.dnsHostNames</title>
<polygon fill="none" stroke="#000000" points="774.7682,-108 660.7682,-108 660.7682,-72 780.7682,-72 780.7682,-102 774.7682,-108"/>
<polyline fill="none" stroke="#000000" points="774.7682,-108 774.7682,-102 "/>
<polyline fill="none" stroke="#000000" points="780.7682,-102 774.7682,-102 "/>
<text text-anchor="middle" x="720.7682" y="-86.3" font-family="Times,serif" font-size="14.00" fill="#000000">var.dnsHostNames</text>
</g>
<!-- [root] aws_vpc.main (expand)&#45;&gt;[root] var.dnsHostNames -->
<g id="edge12" class="edge">
<title>[root] aws_vpc.main (expand)&#45;&gt;[root] var.dnsHostNames</title>
<path fill="none" stroke="#000000" d="M720.7682,-143.8314C720.7682,-136.131 720.7682,-126.9743 720.7682,-118.4166"/>
<polygon fill="#000000" stroke="#000000" points="724.2683,-118.4132 720.7682,-108.4133 717.2683,-118.4133 724.2683,-118.4132"/>
</g>
<!-- [root] var.dnsSupport -->
<g id="node12" class="node">
<title>[root] var.dnsSupport</title>
<polygon fill="none" stroke="#000000" points="892.2682,-108 799.2682,-108 799.2682,-72 898.2682,-72 898.2682,-102 892.2682,-108"/>
<polyline fill="none" stroke="#000000" points="892.2682,-108 892.2682,-102 "/>
<polyline fill="none" stroke="#000000" points="898.2682,-102 892.2682,-102 "/>
<text text-anchor="middle" x="848.7682" y="-86.3" font-family="Times,serif" font-size="14.00" fill="#000000">var.dnsSupport</text>
</g>
<!-- [root] aws_vpc.main (expand)&#45;&gt;[root] var.dnsSupport -->
<g id="edge13" class="edge">
<title>[root] aws_vpc.main (expand)&#45;&gt;[root] var.dnsSupport</title>
<path fill="none" stroke="#000000" d="M753.0681,-143.8314C769.5916,-134.5368 789.8868,-123.1208 807.5289,-113.1971"/>
<polygon fill="#000000" stroke="#000000" points="809.4789,-116.116 816.4788,-108.1628 806.0471,-110.015 809.4789,-116.116"/>
</g>
<!-- [root] var.instanceTenancy -->
<g id="node13" class="node">
<title>[root] var.instanceTenancy</title>
<polygon fill="none" stroke="#000000" points="1038.7682,-108 916.7682,-108 916.7682,-72 1044.7682,-72 1044.7682,-102 1038.7682,-108"/>
<polyline fill="none" stroke="#000000" points="1038.7682,-108 1038.7682,-102 "/>
<polyline fill="none" stroke="#000000" points="1044.7682,-102 1038.7682,-102 "/>
<text text-anchor="middle" x="980.7682" y="-86.3" font-family="Times,serif" font-size="14.00" fill="#000000">var.instanceTenancy</text>
</g>
<!-- [root] aws_vpc.main (expand)&#45;&gt;[root] var.instanceTenancy -->
<g id="edge14" class="edge">
<title>[root] aws_vpc.main (expand)&#45;&gt;[root] var.instanceTenancy</title>
<path fill="none" stroke="#000000" d="M768.4563,-148.7941C807.1635,-138.0751 862.4098,-122.7762 906.8437,-110.4714"/>
<polygon fill="#000000" stroke="#000000" points="908.0247,-113.7762 916.7279,-107.7342 906.1565,-107.03 908.0247,-113.7762"/>
</g>
<!-- [root] var.vpcCIDRblock -->
<g id="node16" class="node">
<title>[root] var.vpcCIDRblock</title>
<polygon fill="none" stroke="#000000" points="636.2682,-108 523.2682,-108 523.2682,-72 642.2682,-72 642.2682,-102 636.2682,-108"/>
<polyline fill="none" stroke="#000000" points="636.2682,-108 636.2682,-102 "/>
<polyline fill="none" stroke="#000000" points="642.2682,-102 636.2682,-102 "/>
<text text-anchor="middle" x="582.7682" y="-86.3" font-family="Times,serif" font-size="14.00" fill="#000000">var.vpcCIDRblock</text>
</g>
<!-- [root] aws_vpc.main (expand)&#45;&gt;[root] var.vpcCIDRblock -->
<g id="edge15" class="edge">
<title>[root] aws_vpc.main (expand)&#45;&gt;[root] var.vpcCIDRblock</title>
<path fill="none" stroke="#000000" d="M685.945,-143.8314C667.9671,-134.4516 645.848,-122.9112 626.7066,-112.9244"/>
<polygon fill="#000000" stroke="#000000" points="628.0652,-109.6855 617.5803,-108.1628 624.8272,-115.8916 628.0652,-109.6855"/>
</g>
<!-- [root] var.region -->
<g id="node14" class="node">
<title>[root] var.region</title>
<polygon fill="none" stroke="#000000" points="282.7682,-36 216.7682,-36 216.7682,0 288.7682,0 288.7682,-30 282.7682,-36"/>
<polyline fill="none" stroke="#000000" points="282.7682,-36 282.7682,-30 "/>
<polyline fill="none" stroke="#000000" points="288.7682,-30 282.7682,-30 "/>
<text text-anchor="middle" x="252.7682" y="-14.3" font-family="Times,serif" font-size="14.00" fill="#000000">var.region</text>
</g>
<!-- [root] provider[&quot;registry.terraform.io/hashicorp/aws&quot;]&#45;&gt;[root] var.region -->
<g id="edge26" class="edge">
<title>[root] provider[&quot;registry.terraform.io/hashicorp/aws&quot;]&#45;&gt;[root] var.region</title>
<path fill="none" stroke="#000000" d="M252.7682,-71.8314C252.7682,-64.131 252.7682,-54.9743 252.7682,-46.4166"/>
<polygon fill="#000000" stroke="#000000" points="256.2683,-46.4132 252.7682,-36.4133 249.2683,-46.4133 256.2683,-46.4132"/>
</g>
<!-- [root] meta.count&#45;boundary (EachMode fixup) -->
<g id="node17" class="node">
<title>[root] meta.count&#45;boundary (EachMode fixup)</title>
<ellipse fill="none" stroke="#000000" cx="338.7682" cy="-450" rx="176.5689" ry="18"/>
<text text-anchor="middle" x="338.7682" y="-446.3" font-family="Times,serif" font-size="14.00" fill="#000000">[root] meta.count&#45;boundary (EachMode fixup)</text>
</g>
<!-- [root] meta.count&#45;boundary (EachMode fixup)&#45;&gt;[root] aws_cloudwatch_log_group.my&#45;logs (expand) -->
<g id="edge16" class="edge">
<title>[root] meta.count&#45;boundary (EachMode fixup)&#45;&gt;[root] aws_cloudwatch_log_group.my&#45;logs (expand)</title>
<path fill="none" stroke="#000000" d="M341.7964,-431.8314C343.0798,-424.131 344.6059,-414.9743 346.0321,-406.4166"/>
<polygon fill="#000000" stroke="#000000" points="349.5077,-406.8526 347.6994,-396.4133 342.6029,-405.7018 349.5077,-406.8526"/>
</g>
<!-- [root] meta.count&#45;boundary (EachMode fixup)&#45;&gt;[root] aws_flow_log.Flow_log (expand) -->
<g id="edge17" class="edge">
<title>[root] meta.count&#45;boundary (EachMode fixup)&#45;&gt;[root] aws_flow_log.Flow_log (expand)</title>
<path fill="none" stroke="#000000" d="M390.0266,-432.7542C419.8345,-422.7254 457.6498,-410.0025 489.3246,-399.3455"/>
<polygon fill="#000000" stroke="#000000" points="490.58,-402.616 498.9419,-396.1098 488.3478,-395.9814 490.58,-402.616"/>
</g>
<!-- [root] meta.count&#45;boundary (EachMode fixup)&#45;&gt;[root] aws_instance.web (expand) -->
<g id="edge18" class="edge">
<title>[root] meta.count&#45;boundary (EachMode fixup)&#45;&gt;[root] aws_instance.web (expand)</title>
<path fill="none" stroke="#000000" d="M296.4477,-432.3868C272.9421,-422.6042 243.4869,-410.3453 218.4942,-399.9437"/>
<polygon fill="#000000" stroke="#000000" points="219.7329,-396.6683 209.1557,-396.0572 217.0432,-403.131 219.7329,-396.6683"/>
</g>
<!-- [root] meta.count&#45;boundary (EachMode fixup)&#45;&gt;[root] aws_route_table_association.a (expand) -->
<g id="edge19" class="edge">
<title>[root] meta.count&#45;boundary (EachMode fixup)&#45;&gt;[root] aws_route_table_association.a (expand)</title>
<path fill="none" stroke="#000000" d="M465.8607,-437.4361C600.2324,-424.0767 800.2546,-403.9491 862.5468,-396.0457"/>
<polygon fill="#000000" stroke="#000000" points="863.0779,-399.506 872.5284,-394.7166 862.1539,-392.5672 863.0779,-399.506"/>
</g>
<!-- [root] meta.count&#45;boundary (EachMode fixup)&#45;&gt;[root] aws_security_group.ingress&#45;all&#45;test (expand) -->
<g id="edge20" class="edge">
<title>[root] meta.count&#45;boundary (EachMode fixup)&#45;&gt;[root] aws_security_group.ingress&#45;all&#45;test (expand)</title>
<path fill="none" stroke="#000000" d="M427.696,-434.4214C488.9876,-423.6842 570.9521,-409.3254 636.8549,-397.7804"/>
<polygon fill="#000000" stroke="#000000" points="637.6262,-401.1987 646.8723,-396.0256 636.4183,-394.3037 637.6262,-401.1987"/>
</g>
<!-- [root] provider[&quot;registry.terraform.io/hashicorp/aws&quot;] (close) -->
<g id="node18" class="node">
<title>[root] provider[&quot;registry.terraform.io/hashicorp/aws&quot;] (close)</title>
<ellipse fill="none" stroke="#000000" cx="760.7682" cy="-450" rx="227.4596" ry="18"/>
<text text-anchor="middle" x="760.7682" y="-446.3" font-family="Times,serif" font-size="14.00" fill="#000000">[root] provider[&quot;registry.terraform.io/hashicorp/aws&quot;] (close)</text>
</g>
<!-- [root] provider[&quot;registry.terraform.io/hashicorp/aws&quot;] (close)&#45;&gt;[root] aws_cloudwatch_log_group.my&#45;logs (expand) -->
<g id="edge21" class="edge">
<title>[root] provider[&quot;registry.terraform.io/hashicorp/aws&quot;] (close)&#45;&gt;[root] aws_cloudwatch_log_group.my&#45;logs (expand)</title>
<path fill="none" stroke="#000000" d="M667.2199,-433.572C606.76,-422.9547 527.7179,-409.0741 463.7554,-397.8417"/>
<polygon fill="#000000" stroke="#000000" points="464.0792,-394.345 453.6245,-396.0626 462.8684,-401.2395 464.0792,-394.345"/>
</g>
<!-- [root] provider[&quot;registry.terraform.io/hashicorp/aws&quot;] (close)&#45;&gt;[root] aws_flow_log.Flow_log (expand) -->
<g id="edge22" class="edge">
<title>[root] provider[&quot;registry.terraform.io/hashicorp/aws&quot;] (close)&#45;&gt;[root] aws_flow_log.Flow_log (expand)</title>
<path fill="none" stroke="#000000" d="M709.8857,-432.3868C681.1267,-422.4318 644.96,-409.9125 614.5779,-399.3956"/>
<polygon fill="#000000" stroke="#000000" points="615.5283,-396.0209 604.9335,-396.0572 613.2385,-402.6358 615.5283,-396.0209"/>
</g>
<!-- [root] provider[&quot;registry.terraform.io/hashicorp/aws&quot;] (close)&#45;&gt;[root] aws_instance.web (expand) -->
<g id="edge23" class="edge">
<title>[root] provider[&quot;registry.terraform.io/hashicorp/aws&quot;] (close)&#45;&gt;[root] aws_instance.web (expand)</title>
<path fill="none" stroke="#000000" d="M604.8854,-436.8433C480.6197,-425.8592 315.5899,-410.0374 233.2412,-395.8703"/>
<polygon fill="#000000" stroke="#000000" points="233.8375,-392.4215 223.3776,-394.1068 232.6054,-399.3122 233.8375,-392.4215"/>
</g>
<!-- [root] provider[&quot;registry.terraform.io/hashicorp/aws&quot;] (close)&#45;&gt;[root] aws_route_table_association.a (expand) -->
<g id="edge24" class="edge">
<title>[root] provider[&quot;registry.terraform.io/hashicorp/aws&quot;] (close)&#45;&gt;[root] aws_route_table_association.a (expand)</title>
<path fill="none" stroke="#000000" d="M810.4276,-432.3868C838.3738,-422.4749 873.4872,-410.0209 903.059,-399.5323"/>
<polygon fill="#000000" stroke="#000000" points="904.6022,-402.6987 912.857,-396.0572 902.2622,-396.1014 904.6022,-402.6987"/>
</g>
<!-- [root] provider[&quot;registry.terraform.io/hashicorp/aws&quot;] (close)&#45;&gt;[root] aws_security_group.ingress&#45;all&#45;test (expand) -->
<g id="edge25" class="edge">
<title>[root] provider[&quot;registry.terraform.io/hashicorp/aws&quot;] (close)&#45;&gt;[root] aws_security_group.ingress&#45;all&#45;test (expand)</title>
<path fill="none" stroke="#000000" d="M757.9925,-431.8314C756.816,-424.131 755.4171,-414.9743 754.1097,-406.4166"/>
<polygon fill="#000000" stroke="#000000" points="757.5516,-405.7699 752.5814,-396.4133 750.6319,-406.8272 757.5516,-405.7699"/>
</g>
<!-- [root] root -->
<g id="node19" class="node">
<title>[root] root</title>
<ellipse fill="none" stroke="#000000" cx="549.7682" cy="-522" rx="47.3916" ry="18"/>
<text text-anchor="middle" x="549.7682" y="-518.3" font-family="Times,serif" font-size="14.00" fill="#000000">[root] root</text>
</g>
<!-- [root] root&#45;&gt;[root] meta.count&#45;boundary (EachMode fixup) -->
<g id="edge27" class="edge">
<title>[root] root&#45;&gt;[root] meta.count&#45;boundary (EachMode fixup)</title>
<path fill="none" stroke="#000000" d="M514.4516,-509.9488C483.1127,-499.255 436.6526,-483.4013 399.3805,-470.6828"/>
<polygon fill="#000000" stroke="#000000" points="400.2204,-467.2713 389.6259,-467.3543 397.9597,-473.8963 400.2204,-467.2713"/>
</g>
<!-- [root] root&#45;&gt;[root] provider[&quot;registry.terraform.io/hashicorp/aws&quot;] (close) -->
<g id="edge28" class="edge">
<title>[root] root&#45;&gt;[root] provider[&quot;registry.terraform.io/hashicorp/aws&quot;] (close)</title>
<path fill="none" stroke="#000000" d="M585.0849,-509.9488C616.2084,-499.3285 662.246,-483.619 699.3862,-470.9455"/>
<polygon fill="#000000" stroke="#000000" points="700.779,-474.1685 709.1128,-467.6265 698.5183,-467.5436 700.779,-474.1685"/>
</g>
</g>
</svg>
